<svg width="640" height="448" viewBox="0 0 640 448" fill="none" xmlns="http://www.w3.org/2000/svg">
  <path d="M608 192V120C608 89.1 582.9 64 552 64H520C517.3 64 514.6 64.38 512 64.75V56C512 25.07 486.9 0 456 0H424C393.07 0 368 25.07 368 56V192H272V56C272 25.07 246.9 0 216 0H184C153.1 0 128 25.07 128 56V64.75C125.4 64.38 122.8 64 120 64H88C57.07 64 32 89.1 32 120V192C14.4 192 0 206.4 0 224C0 241.6 14.4 256 31.1 256L32 328C32 358.9 57.07 384 88 384H120C122.75 384 125.375 383.625 128 383.25V392C128 422.9 153.1 448 184 448H216C246.93 448 272 422.93 272 392V256H368V392C368 422.93 393.07 448 424 448H456C486.93 448 512 422.93 512 392V383.25C514.6 383.6 517.3 384 520 384H552C582.93 384 608 358.93 608 328V256C625.6 256 640 241.6 640 224C640 206.4 625.6 192 608 192ZM120 336H88C83.625 336 80 332.375 80 328V120C80 115.625 83.625 112 88 112H120C124.4 112 128 115.6 128 120V328C128 332.4 124.4 336 120 336ZM224 392C224 396.375 220.375 400 216 400H184C179.625 400 176 396.375 176 392V56C176 51.625 179.625 48 184 48H216C220.4 48 224 51.62 224 56V392ZM464 392C464 396.375 460.375 400 456 400H424C419.625 400 416 396.375 416 392V56C416 51.625 419.625 48 424 48H456C460.375 48 464 51.625 464 56V392ZM560 328C560 332.375 556.375 336 552 336H520C515.625 336 512 332.375 512 328V120C512 115.625 515.625 112 520 112H552C556.375 112 560 115.625 560 120V328Z" fill="white"/>
  </svg>
  